<svg width="12" height="12" viewBox="0 0 12 12" fill="none" xmlns="http://www.w3.org/2000/svg">
<g clip-path="url(#clip0_55_1785)">
<g clip-path="url(#clip1_55_1785)">
<path d="M8 9.25C8 9.94033 8.55967 10.5 9.25 10.5C9.94033 10.5 10.5 9.94033 10.5 9.25C10.5 8.55967 9.94033 8 9.25 8M8 9.25C8 8.55967 8.55967 8 9.25 8M8 9.25H4M9.25 8V4M4 9.25C4 9.94033 3.44035 10.5 2.75 10.5C2.05965 10.5 1.5 9.94033 1.5 9.25C1.5 8.55967 2.05965 8 2.75 8M4 9.25C4 8.55967 3.44035 8 2.75 8M9.25 4C8.55967 4 8 3.44035 8 2.75M9.25 4C9.94033 4 10.5 3.44035 10.5 2.75C10.5 2.05965 9.94033 1.5 9.25 1.5C8.55967 1.5 8 2.05965 8 2.75M2.75 8V4M8 2.75H4M2.75 4C2.05965 4 1.5 3.44035 1.5 2.75C1.5 2.05965 2.05965 1.5 2.75 1.5C3.44035 1.5 4 2.05965 4 2.75M2.75 4C3.44035 4 4 3.44035 4 2.75" stroke="#252728" stroke-width="0.933333" stroke-linecap="round" stroke-linejoin="round"/>
</g>
</g>
<defs>
<clipPath id="clip0_55_1785">
<rect width="12" height="12" fill="white"/>
</clipPath>
<clipPath id="clip1_55_1785">
<rect width="12" height="12" fill="white"/>
</clipPath>
</defs>
</svg>
