<svg width="18" height="18" viewBox="0 0 18 18" fill="none" xmlns="http://www.w3.org/2000/svg">
<path d="M4.62803 13.5C4.93691 12.6261 5.77034 12 6.75 12C7.72965 12 8.56313 12.6261 8.87197 13.5H16.5V15H8.87197C8.56313 15.8739 7.72965 16.5 6.75 16.5C5.77034 16.5 4.93691 15.8739 4.62803 15H1.5V13.5H4.62803ZM9.12803 8.25C9.43687 7.37611 10.2703 6.75 11.25 6.75C12.2297 6.75 13.0631 7.37611 13.372 8.25H16.5V9.75H13.372C13.0631 10.6239 12.2297 11.25 11.25 11.25C10.2703 11.25 9.43687 10.6239 9.12803 9.75H1.5V8.25H9.12803ZM4.62803 3C4.93691 2.12611 5.77034 1.5 6.75 1.5C7.72965 1.5 8.56313 2.12611 8.87197 3H16.5V4.5H8.87197C8.56313 5.37389 7.72965 6 6.75 6C5.77034 6 4.93691 5.37389 4.62803 4.5H1.5V3H4.62803Z" fill="black"/>
</svg>
