<svg width="18" height="18" viewBox="0 0 18 18" fill="none" xmlns="http://www.w3.org/2000/svg">
<path d="M9.43584 2.0147C9.17506 1.82843 8.82474 1.82843 8.56396 2.0147L1.43896 7.10398L2.31082 8.32455L8.99986 3.54667L15.689 8.32455L16.5608 7.10398L9.43584 2.0147ZM14.6858 9.51473L9.43584 5.7647C9.17506 5.57843 8.82474 5.57843 8.56396 5.7647L3.31397 9.51473C3.11687 9.6555 2.99989 9.88275 2.99989 10.125V15C2.99989 15.4142 3.33568 15.75 3.74989 15.75H14.2499C14.6641 15.75 14.9999 15.4142 14.9999 15V10.125C14.9999 9.88275 14.8829 9.6555 14.6858 9.51473ZM4.49989 14.25V10.511L8.99986 7.29667L13.4999 10.511V14.25H4.49989Z" fill="#5856D6"/>
</svg>
