<svg width="23" height="23" viewBox="0 0 23 23" fill="none" xmlns="http://www.w3.org/2000/svg">
<path d="M13.0778 15.6643C13.2731 15.754 13.493 15.7745 13.7015 15.7224C13.91 15.6703 14.0945 15.5488 14.2247 15.3778L14.5603 14.9382C14.7364 14.7033 14.9648 14.5127 15.2274 14.3814C15.49 14.2502 15.7795 14.1818 16.0731 14.1818H18.9095C19.411 14.1818 19.892 14.381 20.2466 14.7357C20.6012 15.0903 20.8004 15.5712 20.8004 16.0728V18.9092C20.8004 19.4107 20.6012 19.8917 20.2466 20.2463C19.892 20.6009 19.411 20.8001 18.9095 20.8001C14.3959 20.8001 10.0671 19.0071 6.87555 15.8155C3.68395 12.6239 1.89093 8.29518 1.89093 3.78158C1.89093 3.28006 2.09015 2.79909 2.44478 2.44447C2.7994 2.08985 3.28037 1.89063 3.78188 1.89062H6.61831C7.11982 1.89063 7.60079 2.08985 7.95541 2.44447C8.31003 2.79909 8.50926 3.28006 8.50926 3.78158V6.618C8.50926 6.91156 8.44091 7.20109 8.30963 7.46366C8.17834 7.72623 7.98773 7.95463 7.75288 8.13076L7.3104 8.46262C7.13682 8.59516 7.01448 8.78369 6.96415 8.9962C6.91383 9.20871 6.93862 9.43209 7.03432 9.6284C8.32648 12.2529 10.4517 14.3754 13.0778 15.6643Z" stroke="url(#paint0_linear_141_2550)" stroke-width="1.25194" stroke-linecap="round" stroke-linejoin="round"/>
<defs>
<linearGradient id="paint0_linear_141_2550" x1="21.3566" y1="1.89063" x2="0.527924" y2="2.93966" gradientUnits="userSpaceOnUse">
<stop stop-color="#A17B20"/>
<stop offset="0.173077" stop-color="#D3A74F"/>
<stop offset="0.360577" stop-color="#FFEC93"/>
<stop offset="0.514423" stop-color="#E4BF66"/>
<stop offset="0.682692" stop-color="#FED87E"/>
<stop offset="0.850962" stop-color="#B38F39"/>
<stop offset="1" stop-color="#956E0F"/>
</linearGradient>
</defs>
</svg>
