<svg width="23" height="23" viewBox="0 0 23 23" fill="none" xmlns="http://www.w3.org/2000/svg">
<g clip-path="url(#clip0_24_895)">
<path d="M17.4861 15.215C16.7347 14.4732 15.7966 14.4732 15.05 15.215C14.4805 15.7798 13.9109 16.3445 13.3509 16.9189C13.1978 17.0768 13.0686 17.1103 12.8819 17.005C12.5134 16.804 12.1209 16.6413 11.7667 16.4211C10.1155 15.3825 8.73237 14.0472 7.50713 12.5444C6.8993 11.7978 6.35847 10.9985 5.98037 10.0987C5.90379 9.91684 5.91815 9.79719 6.06652 9.64882C6.63607 9.09842 7.19125 8.53366 7.75122 7.9689C8.53135 7.18399 8.53135 6.26506 7.74644 5.47535C7.30133 5.02546 6.85623 4.58514 6.41112 4.13525C5.95165 3.67579 5.49698 3.21154 5.03273 2.75686C4.28131 2.02459 3.34324 2.02459 2.59661 2.76164C2.02228 3.3264 1.47188 3.90552 0.887979 4.4607C0.347152 4.97281 0.0743453 5.59979 0.0169123 6.33206C-0.0740233 7.5238 0.217928 8.64853 0.629531 9.74454C1.47188 12.0131 2.75455 14.0281 4.31003 15.8755C6.41112 18.3738 8.91903 20.3505 11.8529 21.7768C13.1739 22.4181 14.5427 22.9111 16.0311 22.9924C17.0554 23.0499 17.9456 22.7914 18.6587 21.9921C19.1469 21.4465 19.6973 20.9488 20.2142 20.4271C20.98 19.6517 20.9847 18.7137 20.2238 17.9479C19.3144 17.0337 18.4003 16.1244 17.4861 15.215Z" fill="#5856D6"/>
<path d="M16.5721 11.4005L18.3382 11.099C18.0606 9.47653 17.2948 8.0072 16.1318 6.8394C14.9018 5.60938 13.3463 4.83403 11.6329 4.59473L11.384 6.37036C12.7098 6.55702 13.9159 7.15528 14.8683 8.10771C15.7681 9.00749 16.3568 10.1466 16.5721 11.4005Z" fill="#5856D6"/>
<path d="M19.3336 3.72357C17.2947 1.6847 14.715 0.397245 11.8673 0L11.6184 1.77564C14.0785 2.12023 16.3088 3.23539 18.07 4.99188C19.7404 6.66223 20.8364 8.77289 21.2336 11.0941L22.9997 10.7926C22.5355 8.10284 21.2672 5.66194 19.3336 3.72357Z" fill="#5856D6"/>
</g>
<defs>
<clipPath id="clip0_24_895">
<rect width="23" height="23" fill="white"/>
</clipPath>
</defs>
</svg>
