<svg width="26" height="26" viewBox="0 0 26 26" fill="none" xmlns="http://www.w3.org/2000/svg">
<path fill-rule="evenodd" clip-rule="evenodd" d="M8.76562 7.17188C8.76562 4.97137 10.5495 3.1875 12.75 3.1875C14.9505 3.1875 16.7344 4.97137 16.7344 7.17188C16.7344 9.37238 14.9505 11.1562 12.75 11.1562C10.5495 11.1562 8.76562 9.37238 8.76562 7.17188Z" fill="#5856D6"/>
<path fill-rule="evenodd" clip-rule="evenodd" d="M16.7344 10.3594C16.7344 8.59897 18.1615 7.17188 19.9219 7.17188C21.6823 7.17188 23.1094 8.59897 23.1094 10.3594C23.1094 12.1198 21.6823 13.5469 19.9219 13.5469C18.1615 13.5469 16.7344 12.1198 16.7344 10.3594Z" fill="#5856D6"/>
<path fill-rule="evenodd" clip-rule="evenodd" d="M2.39062 10.3594C2.39062 8.59897 3.81772 7.17188 5.57812 7.17188C7.33853 7.17188 8.76562 8.59897 8.76562 10.3594C8.76562 12.1198 7.33853 13.5469 5.57812 13.5469C3.81772 13.5469 2.39062 12.1198 2.39062 10.3594Z" fill="#5856D6"/>
<path fill-rule="evenodd" clip-rule="evenodd" d="M6.70423 16.0624C7.97707 14.0722 10.2089 12.75 12.75 12.75C15.2914 12.75 17.5235 14.0725 18.7963 16.0631C19.6762 17.4393 20.0568 19.0986 19.8783 20.7165C19.8504 20.9694 19.7034 21.1937 19.4828 21.3203C17.4987 22.4587 15.1992 23.1094 12.75 23.1094C10.3008 23.1094 8.00125 22.4587 6.0172 21.3203C5.79657 21.1937 5.64963 20.9694 5.62172 20.7165C5.44312 19.0983 5.824 17.4387 6.70423 16.0624Z" fill="#5856D6"/>
<path d="M5.39993 15.1445C5.38713 15.1642 5.37441 15.1839 5.36177 15.2037C4.33597 16.8076 3.86652 18.7177 4.01063 20.6008C3.36459 20.5027 2.73774 20.3449 2.13608 20.133L2.01394 20.0899C1.79112 20.0115 1.63543 19.8091 1.61669 19.5736L1.60642 19.4445C1.59802 19.339 1.59375 19.2324 1.59375 19.125C1.59375 16.9842 3.28211 15.2378 5.39993 15.1445Z" fill="#5856D6"/>
<path d="M21.4897 20.6008C21.6338 18.7181 21.1646 16.8083 20.1392 15.2046C20.1264 15.1845 20.1134 15.1645 20.1005 15.1446C22.2181 15.238 23.9062 16.9843 23.9062 19.125C23.9062 19.2324 23.902 19.339 23.8936 19.4445L23.8833 19.5736C23.8646 19.8091 23.7089 20.0115 23.4861 20.0899L23.3639 20.133C22.7624 20.3448 22.1357 20.5026 21.4897 20.6008Z" fill="#5856D6"/>
</svg>
