<svg width="25" height="26" viewBox="0 0 25 26" fill="none" xmlns="http://www.w3.org/2000/svg">
<path fill-rule="evenodd" clip-rule="evenodd" d="M21.487 7.4188L13.3237 14.1791C13.0917 14.3713 12.7999 14.4765 12.4987 14.4765C12.1974 14.4765 11.9057 14.3713 11.6737 14.1791L3.5142 7.4188C3.47042 7.55058 3.44815 7.68855 3.44825 7.82742V18.1722C3.44825 18.5152 3.58449 18.8441 3.827 19.0866C4.0695 19.3291 4.39841 19.4653 4.74136 19.4653H20.2586C20.6016 19.4653 20.9305 19.3291 21.173 19.0866C21.4155 18.8441 21.5517 18.5152 21.5517 18.1722V7.82742C21.5522 7.68862 21.5304 7.55065 21.487 7.4188ZM4.74136 5.24121H20.2586C20.9445 5.24121 21.6023 5.51369 22.0873 5.99869C22.5723 6.4837 22.8448 7.14151 22.8448 7.82742V18.1722C22.8448 18.8582 22.5723 19.516 22.0873 20.001C21.6023 20.486 20.9445 20.7585 20.2586 20.7585H4.74136C4.05545 20.7585 3.39764 20.486 2.91263 20.001C2.42763 19.516 2.15515 18.8582 2.15515 18.1722V7.82742C2.15515 7.14151 2.42763 6.4837 2.91263 5.99869C3.39764 5.51369 4.05545 5.24121 4.74136 5.24121ZM4.46981 6.53431L11.6802 12.4865C11.9111 12.6772 12.2011 12.7819 12.5006 12.7826C12.8001 12.7833 13.0906 12.68 13.3224 12.4903L20.6052 6.53431H4.46981Z" fill="url(#paint0_linear_141_2554)"/>
<defs>
<linearGradient id="paint0_linear_141_2554" x1="23.4533" y1="5.24121" x2="0.708591" y2="6.76859" gradientUnits="userSpaceOnUse">
<stop stop-color="#A17B20"/>
<stop offset="0.173077" stop-color="#D3A74F"/>
<stop offset="0.360577" stop-color="#FFEC93"/>
<stop offset="0.514423" stop-color="#E4BF66"/>
<stop offset="0.682692" stop-color="#FED87E"/>
<stop offset="0.850962" stop-color="#B38F39"/>
<stop offset="1" stop-color="#956E0F"/>
</linearGradient>
</defs>
</svg>
