<svg width="26" height="26" viewBox="0 0 26 26" fill="none" xmlns="http://www.w3.org/2000/svg">
<path d="M12.4311 2.9806C12.6345 2.89172 12.8657 2.89172 13.0692 2.9806C17.0204 4.70697 20.7652 6.81737 24.2564 9.26451C24.5091 9.4416 24.6368 9.74863 24.5843 10.0527C24.5318 10.3567 24.3085 10.6031 24.011 10.6852C23.2833 10.8861 22.5619 11.1024 21.847 11.333C18.9452 12.2688 16.1519 13.4463 13.4908 14.8418L13.4873 14.8436C13.3666 14.9069 13.2462 14.9706 13.1261 15.0348C12.8915 15.1602 12.6097 15.1602 12.3751 15.0348C12.2538 14.97 12.1323 14.9057 12.0104 14.8418C10.6946 14.1518 9.3464 13.515 7.96878 12.9345V12.6968C7.96878 12.5572 8.04041 12.4334 8.15125 12.3663C9.75044 11.3974 11.4 10.5035 13.0951 9.6893C13.4918 9.49875 13.6589 9.02268 13.4683 8.62596C13.2778 8.22925 12.8017 8.06213 12.405 8.25268C10.6633 9.08927 8.96844 10.0078 7.32543 11.0031C6.84371 11.295 6.51988 11.7726 6.41336 12.3077C5.505 11.9583 4.58471 11.6329 3.65322 11.3325C2.93834 11.1019 2.21687 10.886 1.48917 10.6852C1.19176 10.6031 0.968457 10.3567 0.915948 10.0527C0.863438 9.74862 0.991156 9.44159 1.24381 9.2645C4.73501 6.81736 8.47982 4.70697 12.4311 2.9806Z" fill="#5856D6"/>
<path d="M13.8772 16.4405C16.4685 15.0559 19.191 13.8854 22.0212 12.9525C22.1638 14.4557 22.2549 15.9739 22.2926 17.5052C22.3007 17.8337 22.1063 18.1335 21.803 18.2602C18.7737 19.5249 15.8922 21.0736 13.192 22.8731C12.9243 23.0515 12.5758 23.0515 12.3081 22.8731C9.60787 21.0736 6.72643 19.5249 3.6971 18.2602C3.39383 18.1335 3.19939 17.8337 3.20748 17.5052C3.24521 15.9738 3.33629 14.4555 3.47895 12.9521C4.45751 13.2747 5.42319 13.6256 6.37503 14.004V15.3538C5.89866 15.6294 5.57816 16.1444 5.57816 16.7344C5.57816 17.2606 5.83324 17.7273 6.22651 18.0176C6.1314 18.422 5.99064 18.8177 5.80422 19.1967C6.28521 19.4237 6.76208 19.658 7.2347 19.8995C7.50387 19.352 7.69903 18.7774 7.82018 18.1907C8.3773 17.9424 8.76566 17.3837 8.76566 16.7344C8.76566 16.1444 8.44515 15.6294 7.96878 15.3538V14.6688C9.21339 15.2126 10.4326 15.8039 11.624 16.4405C12.328 16.8166 13.1732 16.8166 13.8772 16.4405Z" fill="#5856D6"/>
<path d="M4.74114 20.6787C5.18647 20.2333 5.54099 19.7317 5.80422 19.1967C6.28521 19.4237 6.76208 19.658 7.2347 19.8995C6.89624 20.5878 6.44052 21.2332 5.86809 21.8056C5.5569 22.1168 5.05234 22.1168 4.74114 21.8056C4.42994 21.4944 4.42994 20.9899 4.74114 20.6787Z" fill="#5856D6"/>
</svg>
