<svg width="16" height="17" viewBox="0 0 16 17" fill="none" xmlns="http://www.w3.org/2000/svg">
<g clip-path="url(#clip0_45_1469)">
<path d="M7.99967 15.5834C11.6816 15.5834 14.6663 12.4121 14.6663 8.50008C14.6663 4.58806 11.6816 1.41675 7.99967 1.41675C4.31778 1.41675 1.33301 4.58806 1.33301 8.50008C1.33301 12.4121 4.31778 15.5834 7.99967 15.5834Z" stroke="#334155" stroke-width="2.06009" stroke-linecap="round" stroke-linejoin="round"/>
<path d="M6.05957 6.37504C6.21631 5.90164 6.52567 5.50245 6.93287 5.24817C7.34008 4.9939 7.81883 4.90095 8.28435 4.98579C8.74988 5.07063 9.17211 5.32778 9.47629 5.7117C9.78046 6.09562 9.94694 6.58153 9.94624 7.08337C9.94624 8.50004 7.94624 9.20837 7.94624 9.20837" stroke="#334155" stroke-width="2.06009" stroke-linecap="round" stroke-linejoin="round"/>
<path d="M8 12.0417H8.00667" stroke="#334155" stroke-width="2.06009" stroke-linecap="round" stroke-linejoin="round"/>
</g>
<defs>
<clipPath id="clip0_45_1469">
<rect width="16" height="17" fill="white"/>
</clipPath>
</defs>
</svg>
