<svg width="33" height="33" viewBox="0 0 33 33" fill="none" xmlns="http://www.w3.org/2000/svg">
<path d="M21.281 17.7238L23.3641 29.447C23.3875 29.585 23.3681 29.7269 23.3086 29.8537C23.2491 29.9804 23.1524 30.086 23.0313 30.1562C22.9102 30.2265 22.7706 30.2581 22.631 30.2469C22.4915 30.2356 22.3587 30.182 22.2504 30.0933L17.3279 26.3986C17.0903 26.2211 16.8016 26.1252 16.505 26.1252C16.2083 26.1252 15.9197 26.2211 15.682 26.3986L10.7513 30.0919C10.6431 30.1805 10.5105 30.234 10.3711 30.2453C10.2317 30.2565 10.0922 30.225 9.97118 30.1549C9.85017 30.0849 9.7534 29.9796 9.69378 29.8531C9.63417 29.7266 9.61454 29.5849 9.63752 29.447L11.7193 17.7238" stroke="#5856D6" stroke-width="2.06009" stroke-linecap="round" stroke-linejoin="round"/>
<path d="M16.5 19.25C21.0563 19.25 24.75 15.5563 24.75 11C24.75 6.44365 21.0563 2.75 16.5 2.75C11.9437 2.75 8.25 6.44365 8.25 11C8.25 15.5563 11.9437 19.25 16.5 19.25Z" stroke="#5856D6" stroke-width="2.06009" stroke-linecap="round" stroke-linejoin="round"/>
</svg>
