<svg width="21" height="21" viewBox="0 0 21 21" fill="none" xmlns="http://www.w3.org/2000/svg">
<g clip-path="url(#clip0_24_802)">
<path d="M16.0781 0H4.92188C2.2036 0 0 2.2036 0 4.92188V16.0781C0 18.7964 2.2036 21 4.92188 21H16.0781C18.7964 21 21 18.7964 21 16.0781V4.92188C21 2.2036 18.7964 0 16.0781 0Z" fill="white"/>
<path d="M16.0781 0H4.92188C2.2036 0 0 2.2036 0 4.92188V16.0781C0 18.7964 2.2036 21 4.92188 21H16.0781C18.7964 21 21 18.7964 21 16.0781V4.92188C21 2.2036 18.7964 0 16.0781 0Z" fill="#0A66C2"/>
<path d="M15.1524 17.857H17.5535C17.6405 17.857 17.7239 17.8224 17.7854 17.7609C17.847 17.6994 17.8816 17.6159 17.8816 17.5289L17.8828 12.456C17.8828 9.80446 17.3115 7.76639 14.2129 7.76639C13.035 7.72259 11.9242 8.32978 11.3248 9.34369C11.3219 9.34861 11.3174 9.35244 11.3121 9.3546C11.3068 9.35675 11.3009 9.3571 11.2954 9.3556C11.2899 9.35411 11.285 9.35084 11.2815 9.34631C11.278 9.34177 11.2761 9.33621 11.276 9.33048V8.3393C11.276 8.25227 11.2414 8.16881 11.1799 8.10728C11.1184 8.04574 11.0349 8.01117 10.9479 8.01117H8.66931C8.58228 8.01117 8.49882 8.04574 8.43729 8.10728C8.37575 8.16881 8.34118 8.25227 8.34118 8.3393V17.5284C8.34118 17.6155 8.37575 17.6989 8.43729 17.7605C8.49882 17.822 8.58228 17.8566 8.66931 17.8566H11.0702C11.1572 17.8566 11.2407 17.822 11.3022 17.7605C11.3638 17.6989 11.3983 17.6155 11.3983 17.5284V12.9861C11.3983 11.7018 11.642 10.4579 13.2343 10.4579C14.8039 10.4579 14.8243 11.9276 14.8243 13.0693V17.5288C14.8243 17.6159 14.8588 17.6993 14.9204 17.7609C14.9819 17.8224 15.0654 17.857 15.1524 17.857ZM3.11719 4.89136C3.11719 5.86458 3.91839 6.66537 4.89169 6.66537C5.86474 6.66528 6.66545 5.864 6.66545 4.89095C6.66528 3.91789 5.8645 3.11719 4.89136 3.11719C3.91798 3.11719 3.11719 3.91814 3.11719 4.89136ZM3.68804 17.857H6.09213C6.17916 17.857 6.26262 17.8224 6.32415 17.7609C6.38569 17.6993 6.42026 17.6159 6.42026 17.5288V8.3393C6.42026 8.25227 6.38569 8.16881 6.32415 8.10728C6.26262 8.04574 6.17916 8.01117 6.09213 8.01117H3.68804C3.60102 8.01117 3.51756 8.04574 3.45602 8.10728C3.39449 8.16881 3.35992 8.25227 3.35992 8.3393V17.5288C3.35992 17.6159 3.39449 17.6993 3.45602 17.7609C3.51756 17.8224 3.60102 17.857 3.68804 17.857Z" fill="white"/>
</g>
<defs>
<clipPath id="clip0_24_802">
<rect width="21" height="21" fill="white"/>
</clipPath>
</defs>
</svg>
