<svg width="25" height="25" viewBox="0 0 25 25" fill="none" xmlns="http://www.w3.org/2000/svg">
<path d="M19.3968 10.0862C19.3968 8.2343 18.6611 6.45821 17.3516 5.14868C16.0421 3.83916 14.266 3.10348 12.4141 3.10348C10.5621 3.10348 8.78603 3.83916 7.4765 5.14868C6.16698 6.45821 5.4313 8.2343 5.4313 10.0862C5.4313 12.9507 7.7232 16.6842 12.4141 21.1562C17.1049 16.6842 19.3968 12.9507 19.3968 10.0862ZM12.4141 23.2759C6.72389 18.104 3.87958 13.7064 3.87958 10.0862C3.87958 7.82276 4.77874 5.65198 6.37927 4.05145C7.9798 2.45092 10.1506 1.55176 12.4141 1.55176C14.6775 1.55176 16.8483 2.45092 18.4489 4.05145C20.0494 5.65198 20.9485 7.82276 20.9485 10.0862C20.9485 13.7064 18.1042 18.104 12.4141 23.2759Z" fill="url(#paint0_linear_141_2545)"/>
<path d="M12.4141 12.4139C13.0314 12.4139 13.6234 12.1687 14.06 11.7322C14.4965 11.2957 14.7417 10.7037 14.7417 10.0863C14.7417 9.46903 14.4965 8.877 14.06 8.44049C13.6234 8.00398 13.0314 7.75876 12.4141 7.75876C11.7968 7.75876 11.2048 8.00398 10.7682 8.44049C10.3317 8.877 10.0865 9.46903 10.0865 10.0863C10.0865 10.7037 10.3317 11.2957 10.7682 11.7322C11.2048 12.1687 11.7968 12.4139 12.4141 12.4139ZM12.4141 13.9657C11.3852 13.9657 10.3985 13.5569 9.67101 12.8294C8.9435 12.1019 8.53479 11.1152 8.53479 10.0863C8.53479 9.05748 8.9435 8.07077 9.67101 7.34326C10.3985 6.61574 11.3852 6.20703 12.4141 6.20703C13.443 6.20703 14.4297 6.61574 15.1572 7.34326C15.8847 8.07077 16.2934 9.05748 16.2934 10.0863C16.2934 11.1152 15.8847 12.1019 15.1572 12.8294C14.4297 13.5569 13.443 13.9657 12.4141 13.9657Z" fill="url(#paint1_linear_141_2545)"/>
<defs>
<linearGradient id="paint0_linear_141_2545" x1="21.4506" y1="1.55176" x2="2.63102" y2="2.2965" gradientUnits="userSpaceOnUse">
<stop stop-color="#A17B20"/>
<stop offset="0.173077" stop-color="#D3A74F"/>
<stop offset="0.360577" stop-color="#FFEC93"/>
<stop offset="0.514423" stop-color="#E4BF66"/>
<stop offset="0.682692" stop-color="#FED87E"/>
<stop offset="0.850962" stop-color="#B38F39"/>
<stop offset="1" stop-color="#956E0F"/>
</linearGradient>
<linearGradient id="paint1_linear_141_2545" x1="16.5216" y1="6.20703" x2="7.97554" y2="6.63745" gradientUnits="userSpaceOnUse">
<stop stop-color="#A17B20"/>
<stop offset="0.173077" stop-color="#D3A74F"/>
<stop offset="0.360577" stop-color="#FFEC93"/>
<stop offset="0.514423" stop-color="#E4BF66"/>
<stop offset="0.682692" stop-color="#FED87E"/>
<stop offset="0.850962" stop-color="#B38F39"/>
<stop offset="1" stop-color="#956E0F"/>
</linearGradient>
</defs>
</svg>
