<svg width="21" height="21" viewBox="0 0 21 21" fill="none" xmlns="http://www.w3.org/2000/svg">
<path d="M13.2843 11.0643L14.5847 18.3828C14.5993 18.469 14.5872 18.5575 14.55 18.6366C14.5129 18.7158 14.4525 18.7817 14.3769 18.8255C14.3013 18.8694 14.2141 18.8891 14.127 18.8821C14.0399 18.8751 13.957 18.8416 13.8894 18.7862L10.8165 16.4798C10.6681 16.369 10.4879 16.3091 10.3027 16.3091C10.1176 16.3091 9.93734 16.369 9.78899 16.4798L6.71088 18.7854C6.64334 18.8407 6.56055 18.8741 6.47354 18.8811C6.38653 18.8881 6.29944 18.8685 6.2239 18.8247C6.14835 18.781 6.08794 18.7153 6.05072 18.6363C6.01351 18.5573 6.00126 18.4689 6.0156 18.3828L7.31517 11.0643" stroke="white" stroke-width="2.06009" stroke-linecap="round" stroke-linejoin="round"/>
<path d="M10.3004 12.0172C13.1447 12.0172 15.4506 9.7114 15.4506 6.86701C15.4506 4.02263 13.1447 1.7168 10.3004 1.7168C7.45598 1.7168 5.15015 4.02263 5.15015 6.86701C5.15015 9.7114 7.45598 12.0172 10.3004 12.0172Z" stroke="white" stroke-width="2.06009" stroke-linecap="round" stroke-linejoin="round"/>
</svg>
